# xmcd
#
# Track frame offsets:
#	150
#	23285
#	49630
#	69820
#	84840
#	103050
#	136365
#	159867
#	188217
#
# Disc length: 2765 seconds
#
# Revision: 1
# Processed by: cddbd v1.4PL0 Copyright (c) Steve Scherf et al.
# Submitted via: audiograbber 1.80
#
DISCID=5d0acb09
DTITLE=Saure Gummern - Saure Gummern Zeit
DYEAR=1900
DGENRE=
TTITLE0=Saure Gummern Zeit
TTITLE1=Biibaa Blues
TTITLE2=Lewwer, Duck Disch
TTITLE3=Egal Wohie
TTITLE4=B44
TTITLE5=Donnersdach Abend
TTITLE6=Sens Uff'm Buckel
TTITLE7=Weck Weg Boogie
TTITLE8=Mer Speele De Blues
EXTD=
EXTT0=
EXTT1=
EXTT2=
EXTT3=
EXTT4=
EXTT5=
EXTT6=
EXTT7=
EXTT8=
PLAYORDER=
